<?xml version="1.0" encoding="UTF-8" standalone="no"?>
<svg
   xmlns:dc="http://purl.org/dc/elements/1.1/"
   xmlns:cc="http://creativecommons.org/ns#"
   xmlns:rdf="http://www.w3.org/1999/02/22-rdf-syntax-ns#"
   xmlns:svg="http://www.w3.org/2000/svg"
   xmlns="http://www.w3.org/2000/svg"
   xmlns:sodipodi="http://sodipodi.sourceforge.net/DTD/sodipodi-0.dtd"
   xmlns:inkscape="http://www.inkscape.org/namespaces/inkscape"
   id="svg180"
   width="690"
   height="349.091"
   version="1.1"
   sodipodi:docname="banner.svg"
   inkscape:version="0.92.4 (5da689c313, 2019-01-14)">
  <sodipodi:namedview
     pagecolor="#ffffff"
     bordercolor="#666666"
     borderopacity="1"
     objecttolerance="10"
     gridtolerance="10"
     guidetolerance="10"
     inkscape:pageopacity="0"
     inkscape:pageshadow="2"
     inkscape:window-width="1920"
     inkscape:window-height="1027"
     id="namedview78"
     showgrid="false"
     inkscape:zoom="0.70915637"
     inkscape:cx="119.65318"
     inkscape:cy="174.5455"
     inkscape:window-x="0"
     inkscape:window-y="0"
     inkscape:window-maximized="1"
     inkscape:current-layer="g178" />
  <metadata
     id="metadata184">
    <rdf:RDF>
      <cc:Work
         rdf:about="">
        <dc:format>image/svg+xml</dc:format>
        <dc:type
           rdf:resource="http://purl.org/dc/dcmitype/StillImage" />
        <dc:title></dc:title>
      </cc:Work>
    </rdf:RDF>
  </metadata>
  <defs
     id="defs25">
    <linearGradient
       id="color-1"
       x1="2.6359999"
       x2="48.597"
       y1="9.4490004"
       y2="54.108002"
       gradientTransform="translate(0.36666666)"
       gradientUnits="userSpaceOnUse">
      <stop
         id="stop2"
         offset="0"
         stop-color="#000"
         stop-opacity=".36" />
      <stop
         id="stop4"
         offset="1"
         stop-color="#000"
         stop-opacity="0" />
    </linearGradient>
    <filter
       id="dropshadow-base">
      <feColorMatrix
         id="feColorMatrix7"
         type="matrix"
         values="0 0 0 0 0 0 0 0 0 0 0 0 0 0 0 0 0 0 .8 0" />
      <feOffset
         id="feOffset9"
         dx="0"
         dy="1" />
      <feGaussianBlur
         id="feGaussianBlur11"
         result="result1"
         stdDeviation="1" />
      <feComposite
         id="feComposite13"
         in="SourceGraphic"
         in2="result1" />
    </filter>
    <filter
       id="dropshadow-banner"
       width="1.2"
       height="1.3"
       x="-0.1"
       y="-0.1">
      <feColorMatrix
         id="feColorMatrix16"
         type="matrix"
         values="0 0 0 0 0 0 0 0 0 0 0 0 0 0 0 0 0 0 .4 0" />
      <feOffset
         id="feOffset18"
         dx="0"
         dy="1" />
      <feGaussianBlur
         id="feGaussianBlur20"
         result="result1"
         stdDeviation=".5" />
      <feComposite
         id="feComposite22"
         in="SourceGraphic"
         in2="result1" />
    </filter>
  </defs>
  <g
     id="g178"
     stroke-miterlimit="10"
     stroke-width="none"
     font-size="none"
     font-weight="none"
     text-anchor="none"
     transform="matrix(10.909091,0,0,10.909091,-25.818181,-89.272737)"
     style="font-family:none;mix-blend-mode:normal;fill:none;fill-rule:nonzero;stroke:none;stroke-linecap:butt;stroke-linejoin:miter;stroke-miterlimit:10;stroke-dasharray:none;stroke-dashoffset:0">
    <rect
       style="fill:#607d8b;fill-opacity:1;stroke-width:0.05823087"
       id="rect885"
       width="63.25"
       height="32.083332"
       x="2.3666666"
       y="8.100009" />
    <path
       id="path28"
       d="M 5.7341266,36.49685 V 26.35565 L 3.0021866,23.62371 17.176946,9.44895 47.946718,40.183383 44.366676,40.00005 9.2372866,40.183383 Z m 22.8856294,0 v -3.26758 l -3.26758,3.26758 z"
       inkscape:connector-curvature="0"
       style="fill:url(#color-1);stroke-width:1" />
    <path
       id="rect840 1 1"
       d="m 17.176936,9.44894 14.17476,14.17476 h -2.73194 V 36.49685 H 5.7341266 V 23.6237 h -2.73195 z"
       inkscape:connector-curvature="0"
       style="fill:none;stroke-width:0" />
    <g
       id="svg1137 9"
       transform="translate(0.36666666)">
      <g
         id="layer1 1">
        <g
           id="g1692 1">
          <path
             id="rect840 1"
             d="m 8.22817,22.9729 h 17.12856 c 0.01932,0 0.03487,0.01804 0.03487,0.04046 v 10.59249 c 0,0.02241 -0.01555,0.04046 -0.03487,0.04046 H 8.22817 c -0.01932,0 -0.03487,-0.01805 -0.03487,-0.04046 V 23.01336 c 0,-0.02241 0.01555,-0.04046 0.03487,-0.04046 z"
             inkscape:connector-curvature="0"
             style="fill:#424242;stroke-width:0.18099999" />
          <path
             id="path842 1"
             d="m 25.39237,33.63619 c -10e-6,-2.04107 -5e-5,-10.66329 -5e-5,-10.66329 h -6.61383 v 5.15494 H 17.9912 V 22.9729 h -4.9599 v 0.78729 c 0,0 0.66367,0.32593 0.78729,0.78729 h -1.73203 c 0.11812,-0.44082 0.78729,-0.78729 0.78729,-0.78729 V 22.9729 H 8.22818 v 5.15494 h 17.16414 l 3e-5,0.64437 h -9.763 v 4.86401 h -0.78729 c -0.13121,0 0.13121,-4.86401 0,-4.86401 H 8.2282 l -3e-5,4.86401 M 16.81027,9.44894 30.98503,23.6237 H 28.25309 V 36.49685 H 5.36746 V 23.6237 H 2.63551 Z"
             inkscape:connector-curvature="0"
             style="fill:#e0e0e0;stroke-width:24.54400063" />
        </g>
      </g>
    </g>
    <path
       id="base 1 29 1"
       d="m 2.3666666,24 c 0,-12.15026 9.8497394,-22 21.9999994,-22 12.15026,0 22,9.84974 22,22 0,12.15026 -9.84974,22 -22,22 C 12.216406,46 2.3666666,36.15026 2.3666666,24 Z"
       inkscape:connector-curvature="0"
       style="fill:none;stroke-width:1" />
    <path
       id="base 1 25 1"
       d="m 2.3666666,24 c 0,-12.15026 9.8497394,-22 21.9999994,-22 12.15026,0 22,9.84974 22,22 0,12.15026 -9.84974,22 -22,22 C 12.216406,46 2.3666666,36.15026 2.3666666,24 Z"
       inkscape:connector-curvature="0"
       style="fill:none;stroke-width:1" />
    <path
       id="base 1 21 1"
       d="m 2.3666666,24 c 0,-12.15026 9.8497394,-22 21.9999994,-22 12.15026,0 22,9.84974 22,22 0,12.15026 -9.84974,22 -22,22 C 12.216406,46 2.3666666,36.15026 2.3666666,24 Z"
       inkscape:connector-curvature="0"
       style="fill:none;stroke-width:1" />
    <path
       id="base 1 17 1"
       d="m 2.3666666,24 c 0,-12.15026 9.8497394,-22 21.9999994,-22 12.15026,0 22,9.84974 22,22 0,12.15026 -9.84974,22 -22,22 C 12.216406,46 2.3666666,36.15026 2.3666666,24 Z"
       inkscape:connector-curvature="0"
       style="fill:none;stroke-width:1" />
    <path
       id="base 1 13 1"
       d="m 2.3666666,24 c 0,-12.15026 9.8497394,-22 21.9999994,-22 12.15026,0 22,9.84974 22,22 0,12.15026 -9.84974,22 -22,22 C 12.216406,46 2.3666666,36.15026 2.3666666,24 Z"
       inkscape:connector-curvature="0"
       style="fill:none;stroke-width:1" />
    <path
       id="base 1 9 1"
       d="m 2.3666666,24 c 0,-12.15026 9.8497394,-22 21.9999994,-22 12.15026,0 22,9.84974 22,22 0,12.15026 -9.84974,22 -22,22 C 12.216406,46 2.3666666,36.15026 2.3666666,24 Z"
       inkscape:connector-curvature="0"
       style="fill:none;stroke-width:1" />
    <path
       id="base 1 5 1"
       d="m 2.3666666,24 c 0,-12.15026 9.8497394,-22 21.9999994,-22 12.15026,0 22,9.84974 22,22 0,12.15026 -9.84974,22 -22,22 C 12.216406,46 2.3666666,36.15026 2.3666666,24 Z"
       inkscape:connector-curvature="0"
       style="fill:none;stroke-width:1" />
    <path
       id="base 1 1 1"
       d="m 2.3666666,24 c 0,-12.15026 9.8497394,-22 21.9999994,-22 12.15026,0 22,9.84974 22,22 0,12.15026 -9.84974,22 -22,22 C 12.216406,46 2.3666666,36.15026 2.3666666,24 Z"
       inkscape:connector-curvature="0"
       style="fill:none;stroke-width:1" />
    <rect
       id="rect49"
       width="44"
       height="22"
       x="2.3670001"
       y="2"
       style="fill:none;stroke-width:1" />
    <path
       id="path51"
       d="M 2.3666666,24 V 2 H 46.366666 v 22 z"
       inkscape:connector-curvature="0"
       style="fill:none;stroke-width:1" />
    <path
       id="path53"
       d="M 2.3666666,24 V 2 H 46.366666 v 22 z"
       inkscape:connector-curvature="0"
       style="fill:none;stroke-width:1" />
    <path
       id="path55"
       d="M 2.3666666,24 V 2 H 46.366666 v 22 z"
       inkscape:connector-curvature="0"
       style="fill:none;stroke-width:1" />
    <path
       id="path57"
       d="M 2.3666666,24 V 2 H 46.366666 v 22 z"
       inkscape:connector-curvature="0"
       style="fill:none;stroke-width:1" />
    <rect
       id="rect66"
       width="44"
       height="22"
       x="2.3670001"
       y="2"
       style="fill:none;stroke-width:1" />
    <path
       id="path68"
       d="M 2.3666666,24 V 2 H 46.366666 v 22 z"
       inkscape:connector-curvature="0"
       style="fill:none;stroke-width:1" />
    <path
       id="path70"
       d="M 2.3666666,24 V 2 H 46.366666 v 22 z"
       inkscape:connector-curvature="0"
       style="fill:none;stroke-width:1" />
    <path
       id="path72"
       d="M 2.3666666,24 V 2 H 46.366666 v 22 z"
       inkscape:connector-curvature="0"
       style="fill:none;stroke-width:1" />
    <path
       id="path74"
       d="M 2.3666666,24 V 2 H 46.366666 v 22 z"
       inkscape:connector-curvature="0"
       style="fill:none;stroke-width:1" />
    <rect
       id="rect83"
       width="44"
       height="22"
       x="2.3670001"
       y="2"
       style="fill:none;stroke-width:1" />
    <path
       id="path85"
       d="M 2.3666666,24 V 2 H 46.366666 v 22 z"
       inkscape:connector-curvature="0"
       style="fill:none;stroke-width:1" />
    <path
       id="path87"
       d="M 2.3666666,24 V 2 H 46.366666 v 22 z"
       inkscape:connector-curvature="0"
       style="fill:none;stroke-width:1" />
    <path
       id="path89"
       d="M 2.3666666,24 V 2 H 46.366666 v 22 z"
       inkscape:connector-curvature="0"
       style="fill:none;stroke-width:1" />
    <path
       id="path91"
       d="M 2.3666666,24 V 2 H 46.366666 v 22 z"
       inkscape:connector-curvature="0"
       style="fill:none;stroke-width:1" />
    <rect
       id="rect100"
       width="44"
       height="22"
       x="2.3670001"
       y="2"
       style="fill:none;stroke-width:1" />
    <path
       id="path102"
       d="M 2.3666666,24 V 2 H 46.366666 v 22 z"
       inkscape:connector-curvature="0"
       style="fill:none;stroke-width:1" />
    <path
       id="path104"
       d="M 2.3666666,24 V 2 H 46.366666 v 22 z"
       inkscape:connector-curvature="0"
       style="fill:none;stroke-width:1" />
    <path
       id="path106"
       d="M 2.3666666,24 V 2 H 46.366666 v 22 z"
       inkscape:connector-curvature="0"
       style="fill:none;stroke-width:1" />
    <path
       id="path108"
       d="M 2.3666666,24 V 2 H 46.366666 v 22 z"
       inkscape:connector-curvature="0"
       style="fill:none;stroke-width:1" />
    <rect
       id="rect117"
       width="44"
       height="22"
       x="2.3670001"
       y="2"
       style="fill:none;stroke-width:1" />
    <path
       id="path119"
       d="M 2.3666666,24 V 2 H 46.366666 v 22 z"
       inkscape:connector-curvature="0"
       style="fill:none;stroke-width:1" />
    <path
       id="path121"
       d="M 2.3666666,24 V 2 H 46.366666 v 22 z"
       inkscape:connector-curvature="0"
       style="fill:none;stroke-width:1" />
    <path
       id="path123"
       d="M 2.3666666,24 V 2 H 46.366666 v 22 z"
       inkscape:connector-curvature="0"
       style="fill:none;stroke-width:1" />
    <path
       id="path125"
       d="M 2.3666666,24 V 2 H 46.366666 v 22 z"
       inkscape:connector-curvature="0"
       style="fill:none;stroke-width:1" />
    <rect
       id="rect134"
       width="44"
       height="22"
       x="2.3670001"
       y="2"
       style="fill:none;stroke-width:1" />
    <path
       id="path136"
       d="M 2.3666666,24 V 2 H 46.366666 v 22 z"
       inkscape:connector-curvature="0"
       style="fill:none;stroke-width:1" />
    <path
       id="path138"
       d="M 2.3666666,24 V 2 H 46.366666 v 22 z"
       inkscape:connector-curvature="0"
       style="fill:none;stroke-width:1" />
    <path
       id="path140"
       d="M 2.3666666,24 V 2 H 46.366666 v 22 z"
       inkscape:connector-curvature="0"
       style="fill:none;stroke-width:1" />
    <path
       id="path142"
       d="M 2.3666666,24 V 2 H 46.366666 v 22 z"
       inkscape:connector-curvature="0"
       style="fill:none;stroke-width:1" />
    <rect
       id="rect151"
       width="44"
       height="22"
       x="2.3670001"
       y="2"
       style="fill:none;stroke-width:1" />
    <path
       id="path153"
       d="M 2.3666666,24 V 2 H 46.366666 v 22 z"
       inkscape:connector-curvature="0"
       style="fill:none;stroke-width:1" />
    <path
       id="path155"
       d="M 2.3666666,24 V 2 H 46.366666 v 22 z"
       inkscape:connector-curvature="0"
       style="fill:none;stroke-width:1" />
    <path
       id="path157"
       d="M 2.3666666,24 V 2 H 46.366666 v 22 z"
       inkscape:connector-curvature="0"
       style="fill:none;stroke-width:1" />
    <path
       id="path159"
       d="M 2.3666666,24 V 2 H 46.366666 v 22 z"
       inkscape:connector-curvature="0"
       style="fill:none;stroke-width:1" />
    <rect
       id="rect168"
       width="44"
       height="22"
       x="2.3670001"
       y="2"
       style="fill:none;stroke-width:1" />
    <path
       id="path170"
       d="M 2.3666666,24 V 2 H 46.366666 v 22 z"
       inkscape:connector-curvature="0"
       style="fill:none;stroke-width:1" />
    <path
       id="path172"
       d="M 2.3666666,24 V 2 H 46.366666 v 22 z"
       inkscape:connector-curvature="0"
       style="fill:none;stroke-width:1" />
    <path
       id="path174"
       d="M 2.3666666,24 V 2 H 46.366666 v 22 z"
       inkscape:connector-curvature="0"
       style="fill:none;stroke-width:1" />
    <path
       id="path176"
       d="M 2.3666666,24 V 2 H 46.366666 v 22 z"
       inkscape:connector-curvature="0"
       style="fill:none;stroke-width:1" />
    <text
       id="text993"
       x="33.035"
       y="22.906"
       font-size="3.667"
       font-style="normal"
       font-weight="normal"
       letter-spacing="0"
       word-spacing="0"
       xml:space="preserve"
       style="font-style:normal;font-weight:normal;font-size:3.66700006px;line-height:1.25;font-family:sans-serif;letter-spacing:0;word-spacing:0;fill:#000000;fill-opacity:1;stroke:none;stroke-width:0.092"><tspan
         id="tspan991"
         x="33.035"
         y="22.906"
         font-size="11"
         font-stretch="normal"
         font-style="normal"
         font-variant="normal"
         font-weight="normal"
         style="font-style:normal;font-variant:normal;font-weight:normal;font-stretch:normal;font-size:11px;line-height:1;font-family:Roboto;-inkscape-font-specification:Roboto;fill:#f5f5f5;fill-opacity:1;stroke-width:0.092">Home</tspan><tspan
         id="tspan995"
         x="33.035"
         y="33.905998"
         font-size="11"
         font-stretch="normal"
         font-style="normal"
         font-variant="normal"
         font-weight="normal"
         style="font-style:normal;font-variant:normal;font-weight:normal;font-stretch:normal;font-size:11px;line-height:1;font-family:Roboto;-inkscape-font-specification:Roboto;fill:#f5f5f5;fill-opacity:1;stroke-width:0.092">Panel</tspan></text>
  </g>
</svg>
